<?xml version="1.0" encoding="UTF-8"?>
<svg width="156" height="40" viewBox="0 0 156 40" fill="none" xmlns="http://www.w3.org/2000/svg">
  <path d="M20 0C8.954 0 0 8.954 0 20C0 31.046 8.954 40 20 40C31.046 40 40 31.046 40 20C40 8.954 31.046 0 20 0ZM20 36C11.163 36 4 28.837 4 20C4 11.163 11.163 4 20 4C28.837 4 36 11.163 36 20C36 28.837 28.837 36 20 36Z" fill="#BF9FFB"/>
  <path d="M20 8C13.373 8 8 13.373 8 20C8 26.627 13.373 32 20 32C26.627 32 32 26.627 32 20C32 13.373 26.627 8 20 8ZM20 28C15.582 28 12 24.418 12 20C12 15.582 15.582 12 20 12C24.418 12 28 15.582 28 20C28 24.418 24.418 28 20 28Z" fill="#BF9FFB"/>
  <path d="M20 16C17.791 16 16 17.791 16 20C16 22.209 17.791 24 20 24C22.209 24 24 22.209 24 20C24 17.791 22.209 16 20 16Z" fill="#BF9FFB"/>
  <path d="M48 11.2H52.8L60 28.8H54.8L53.8 26H47L46 28.8H40.8L48 11.2ZM50.4 15.6L48 21.6H52.8L50.4 15.6Z" fill="#FFFFFF"/>
  <path d="M64 11.2H69.2V24.4H77.4V28.8H64V11.2Z" fill="#FFFFFF"/>
  <path d="M80 11.2H92.6V15.6H85.2V17.8H91.8V22.2H85.2V24.4H92.8V28.8H80V11.2Z" fill="#FFFFFF"/>
  <path d="M108.2 28.8L104.8 22.8H102.4V28.8H97.2V11.2H106.4C108.267 11.2 109.733 11.733 110.8 12.8C111.867 13.867 112.4 15.2 112.4 16.8C112.4 18.4 112 19.667 111.2 20.6C110.4 21.533 109.333 22.133 108 22.4L112 28.8H108.2ZM107.2 16.8C107.2 16.267 107 15.867 106.6 15.6C106.2 15.333 105.733 15.2 105.2 15.2H102.4V18.4H105.2C105.733 18.4 106.2 18.267 106.6 18C107 17.733 107.2 17.333 107.2 16.8Z" fill="#FFFFFF"/>
  <path d="M124.999 11.2H129.799L121.999 19.4L130.399 28.8H125.199L118.599 21.2V28.8H113.399V11.2H118.599V18.6L124.999 11.2Z" fill="#FFFFFF"/>
  <path d="M132 11.2H144.6V15.6H137.2V17.8H143.8V22.2H137.2V24.4H144.8V28.8H132V11.2Z" fill="#FFFFFF"/>
  <path d="M147.4 11.2H152.6V24.4H156V28.8H147.4V11.2Z" fill="#FFFFFF"/>
</svg>