<?xml version="1.0" encoding="UTF-8"?>
<svg width="24" height="24" viewBox="0 0 24 24" fill="none" xmlns="http://www.w3.org/2000/svg">
  <path d="M19.4 10C19.2 8.9 18.8 7.8 18.2 6.9L19.9 5.2L18.8 4.1L17.1 5.8C16.2 5.2 15.1 4.8 14 4.6V2H10V4.6C8.9 4.8 7.8 5.2 6.9 5.8L5.2 4.1L4.1 5.2L5.8 6.9C5.2 7.8 4.8 8.9 4.6 10H2V14H4.6C4.8 15.1 5.2 16.2 5.8 17.1L4.1 18.8L5.2 19.9L6.9 18.2C7.8 18.8 8.9 19.2 10 19.4V22H14V19.4C15.1 19.2 16.2 18.8 17.1 18.2L18.8 19.9L19.9 18.8L18.2 17.1C18.8 16.2 19.2 15.1 19.4 14H22V10H19.4ZM12 16C9.8 16 8 14.2 8 12C8 9.8 9.8 8 12 8C14.2 8 16 9.8 16 12C16 14.2 14.2 16 12 16Z" fill="currentColor"/>
</svg>